<?xml version="1.0" encoding="UTF-8"?>
<!DOCTYPE svg PUBLIC "-//W3C//DTD SVG 1.1//EN" "http://www.w3.org/Graphics/SVG/1.1/DTD/svg11.dtd">
<!-- Creator: CorelDRAW X7 -->
<svg xmlns="http://www.w3.org/2000/svg" xml:space="preserve" width="auto" height="70px" version="1.1" style="shape-rendering:geometricPrecision; text-rendering:geometricPrecision; image-rendering:optimizeQuality; fill-rule:evenodd; clip-rule:evenodd"
viewBox="0 0 1330601 1330601"
 xmlns:xlink="http://www.w3.org/1999/xlink">
 <defs>
  <style type="text/css">
   <![CDATA[
    .fil0 {fill:#252E36}
    .fil1 {fill:white;fill-rule:nonzero}
   ]]>
  </style>
 </defs>
 <g id="Layer_x0020_1">
  <metadata id="CorelCorpID_0Corel-Layer"/>
  <rect class="fil0" width="1330601" height="1330601"/>
  <g id="_2147537717088">
   <path class="fil1" d="M1075615 856700l-84369 -114442c-1632,-2219 -1963,-4888 -1229,-7557 734,-2669 2440,-4668 4944,-5842 48581,-22819 75564,-67622 75564,-129557 0,-89569 -60697,-140837 -166179,-140837l-158199 0c-5044,0 -9162,4118 -9162,9162l0 394182c0,5044 4118,9162 9162,9162l51214 0c5044,0 9162,-4118 9162,-9162l0 -106014c0,-5044 4118,-9162 9162,-9162l80820 0c4558,0 9153,-46 13482,-211 3411,-137 6328,1642 8272,4421l80746 115698c1862,2660 4540,4430 7842,4430l61165 0c3476,0 6447,-1788 8080,-4852 1632,-3063 1559,-6649 -477,-9419zm-269092 -181696l0 -144910c0,-5044 4118,-9162 9162,-9162l88661 0c63641,0 100180,25928 100180,80140 0,55983 -36539,83094 -100180,83094l-88661 0c-5044,0 -9162,-4118 -9162,-9162z"/>
   <path class="fil1" d="M556370 562992l28927 -36062c3036,-3788 2605,-9272 -999,-12528 -39750,-35943 -95100,-57707 -150459,-57707 -121990,0 -216860,90165 -216860,207431 0,118450 93696,209789 214503,209789 55332,0 111727,-23864 153091,-61513 3714,-3384 4008,-9153 651,-12895l-29120 -32449c-3338,-3714 -9061,-4072 -12830,-789 -30459,26478 -69869,42822 -108261,42822 -82497,0 -147322,-64228 -147322,-145552 0,-81323 64825,-144964 147322,-144964 38676,0 78361,17123 107885,45307 1926,1834 4273,2687 6933,2513 2651,-174 4870,-1330 6539,-3403z"/>
  </g>
 </g>
</svg>
