<?xml version="1.0" encoding="UTF-8"?>
<!DOCTYPE svg PUBLIC "-//W3C//DTD SVG 1.1//EN" "http://www.w3.org/Graphics/SVG/1.1/DTD/svg11.dtd">
<!-- Creator: CorelDRAW X7 -->
<svg xmlns="http://www.w3.org/2000/svg" xml:space="preserve" width="auto" height="14px" version="1.1" style="shape-rendering:geometricPrecision; text-rendering:geometricPrecision; image-rendering:optimizeQuality; fill-rule:evenodd; clip-rule:evenodd"
viewBox="0 0 4373 451"
 xmlns:xlink="http://www.w3.org/1999/xlink">
 <defs>
  <style type="text/css">
   <![CDATA[
    .fil0 {fill:white;fill-rule:nonzero}
   ]]>
  </style>
 </defs>
 <g id="Layer_x0020_1">
  <metadata id="CorelCorpID_0Corel-Layer"/>
  <path class="fil0" d="M367 115l31 -39c3,-4 3,-10 -1,-14 -43,-38 -103,-62 -163,-62 -132,0 -234,97 -234,224 0,128 101,227 232,227 59,0 120,-26 165,-67 4,-3 4,-10 1,-14l-32 -35c-3,-4 -10,-4 -14,-1 -32,29 -75,47 -117,47 -89,0 -159,-70 -159,-158 0,-87 70,-156 159,-156 42,0 85,18 117,49 2,2 5,3 7,2 3,0 6,-1 8,-3zm380 -115c-133,0 -237,97 -237,225 0,127 104,226 237,226 133,0 236,-99 236,-226 0,-128 -103,-225 -236,-225zm0 67c87,0 159,69 159,158 0,88 -72,158 -159,158 -87,0 -160,-70 -160,-158 0,-89 72,-158 160,-158zm575 -65l-173 0c-5,0 -10,4 -10,10l0 426c0,5 5,9 10,9l171 0c135,0 232,-94 232,-222 0,-130 -96,-223 -230,-223zm2 378l-100 0c-5,0 -10,-4 -10,-10l0 -291c0,-5 5,-10 10,-10l97 0c87,0 156,65 156,156 0,91 -67,155 -153,155zm385 -368l0 426c0,5 4,9 10,9l306 0c5,0 10,-4 10,-9l0 -48c0,-6 -5,-10 -10,-10l-231 0c-6,0 -10,-4 -10,-10l0 -103c0,-5 4,-10 10,-10l198 0c5,0 10,-4 10,-10l0 -47c0,-5 -5,-10 -10,-10l-198 0c-6,0 -10,-4 -10,-10l0 -101c0,-5 4,-10 10,-10l223 0c6,0 10,-4 10,-10l0 -47c0,-6 -4,-10 -10,-10l-298 0c-6,0 -10,4 -10,10zm859 420l-91 -124c-1,-2 -2,-5 -1,-8 1,-3 3,-5 5,-6 53,-25 82,-73 82,-140 0,-97 -66,-152 -180,-152l-170 0c-6,0 -10,4 -10,10l0 426c0,5 4,9 10,9l55 0c5,0 10,-4 10,-9l0 -115c0,-5 4,-10 10,-10l87 0c5,0 10,0 15,0 3,0 6,2 8,5l88 125c2,3 5,4 8,4l66 0c4,0 7,-2 9,-5 2,-3 2,-7 -1,-10zm-290 -196l0 -157c0,-5 4,-10 10,-10l95 0c69,0 109,28 109,87 0,60 -40,90 -109,90l-95 0c-6,0 -10,-5 -10,-10zm653 -236c-133,0 -237,97 -237,225 0,127 104,226 237,226 133,0 236,-99 236,-226 0,-128 -103,-225 -236,-225zm0 67c87,0 159,69 159,158 0,88 -72,158 -159,158 -87,0 -160,-70 -160,-158 0,-89 72,-158 160,-158zm583 -67c-133,0 -236,97 -236,225 0,127 103,226 236,226 133,0 236,-99 236,-226 0,-128 -103,-225 -236,-225zm1 67c87,0 158,69 158,158 0,88 -71,158 -158,158 -87,0 -161,-70 -161,-158 0,-89 73,-158 161,-158zm387 -55l0 426c0,5 5,9 10,9l51 0c6,0 10,-4 10,-9l0 -281c0,-4 3,-8 8,-9 4,-2 9,1 11,5l119 242c2,4 5,6 9,6l36 0c4,0 8,-2 9,-6l120 -242c2,-5 6,-7 11,-6 4,1 7,5 7,10l1 281c0,5 4,9 10,9l49 0c6,0 10,-4 10,-9l0 -426c0,-6 -4,-10 -10,-10l-72 0c-4,0 -7,2 -9,5l-135 273c-1,3 -5,5 -9,5 -3,0 -7,-2 -8,-5l-136 -273c-1,-3 -5,-5 -9,-5l-73 0c-5,0 -10,4 -10,10z"/>
 </g>
</svg>
